<svg xmlns="http://www.w3.org/2000/svg" width="760" height="366" viewBox="0 0 760 366" font-family="Geist, system-ui, -apple-system, Segoe UI, Helvetica, Arial, sans-serif" font-size="12" role="img" aria-label="How often each system invented a value for a field that was not there">
<rect width="760" height="366" fill="#fcfcfb"/>
<text x="16" y="26" font-size="15" font-weight="600" fill="#0b0b0b">How often each system invented a value for a field that was not there</text>
<text x="16" y="46" font-size="11.5" fill="#52514e">96 fields that are absent from the documents. Lower is better.</text>
<svg fill="#0b0b0b" font-family="Geist, system-ui, -apple-system, Segoe UI, Helvetica, Arial, sans-serif" font-size="10" text-anchor="middle" width="760" height="252" viewBox="0 0 760 252" style="font-family: Geist, system-ui, -apple-system, &quot;Segoe UI&quot;, Helvetica, Arial, sans-serif; background: transparent; color: rgb(11, 11, 11); overflow: visible;" x="0" y="64"><g aria-label="x-grid" aria-hidden="true" stroke="#e4e3df"><line x1="236" x2="236" y1="4" y2="220"></line><line x1="290" x2="290" y1="4" y2="220"></line><line x1="344" x2="344" y1="4" y2="220"></line><line x1="398" x2="398" y1="4" y2="220"></line><line x1="452" x2="452" y1="4" y2="220"></line><line x1="506" x2="506" y1="4" y2="220"></line><line x1="560" x2="560" y1="4" y2="220"></line></g><g aria-label="x-axis tick label" fill="#52514e" font-size="10" font-variant="tabular-nums" transform="translate(0,9)"><text y="0.71em" transform="translate(236,220)">0%</text><text y="0.71em" transform="translate(290,220)">10%</text><text y="0.71em" transform="translate(344,220)">20%</text><text y="0.71em" transform="translate(398,220)">30%</text><text y="0.71em" transform="translate(452,220)">40%</text><text y="0.71em" transform="translate(506,220)">50%</text><text y="0.71em" transform="translate(560,220)">60%</text></g><g aria-label="bar" class="bar" fill="#7a6690"><path d="M236,25A0,0 0 0 1 236,25H288.25A4,4 0 0 1 292.25,29V35A4,4 0 0 1 288.25,39H236A0,0 0 0 1 236,39Z" data-role="bar"></path><path d="M236,57A0,0 0 0 1 236,57H290.125A4,4 0 0 1 294.125,61V67A4,4 0 0 1 290.125,71H236A0,0 0 0 1 236,71Z" data-role="bar"></path><path d="M236,89A0,0 0 0 1 236,89H293.875A4,4 0 0 1 297.875,93V99A4,4 0 0 1 293.875,103H236A0,0 0 0 1 236,103Z" data-role="bar"></path><path d="M236,121A0,0 0 0 1 236,121H301.375A4,4 0 0 1 305.375,125V131A4,4 0 0 1 301.375,135H236A0,0 0 0 1 236,135Z" data-role="bar"></path><path d="M236,153A0,0 0 0 1 236,153H323.875A4,4 0 0 1 327.875,157V163A4,4 0 0 1 323.875,167H236A0,0 0 0 1 236,167Z" data-role="bar"></path><path d="M236,185A0,0 0 0 1 236,185H449.5A4,4 0 0 1 453.5,189V195A4,4 0 0 1 449.5,199H236A0,0 0 0 1 236,199Z" data-role="bar"></path></g><g aria-label="rule" class="interval" stroke="#0b0b0b" stroke-width="1.5" transform="translate(0,7)"><line x1="264.45481439460815" x2="330.94505494505495" y1="25" y2="25" data-role="interval"></line><line x1="266.99821053282596" x2="335.4736842105263" y1="57" y2="57" data-role="interval"></line><line x1="268.708064136791" x2="342.85144710190764" y1="89" y2="89" data-role="interval"></line><line x1="277" x2="346.5786560783049" y1="121" y2="121" data-role="interval"></line><line x1="290.453781512605" x2="380" y1="153" y2="153" data-role="interval"></line><line x1="403.47826086956525" x2="519.5" y1="185" y2="185" data-role="interval"></line></g><g aria-label="tick" stroke="#0b0b0b" stroke-width="1.5"><line x1="264.45481439460815" x2="264.45481439460815" y1="28" y2="36"></line><line x1="266.99821053282596" x2="266.99821053282596" y1="60" y2="68"></line><line x1="268.708064136791" x2="268.708064136791" y1="92" y2="100"></line><line x1="277" x2="277" y1="124" y2="132"></line><line x1="290.453781512605" x2="290.453781512605" y1="156" y2="164"></line><line x1="403.47826086956525" x2="403.47826086956525" y1="188" y2="196"></line></g><g aria-label="tick" stroke="#0b0b0b" stroke-width="1.5"><line x1="330.94505494505495" x2="330.94505494505495" y1="28" y2="36"></line><line x1="335.4736842105263" x2="335.4736842105263" y1="60" y2="68"></line><line x1="342.85144710190764" x2="342.85144710190764" y1="92" y2="100"></line><line x1="346.5786560783049" x2="346.5786560783049" y1="124" y2="132"></line><line x1="380" x2="380" y1="156" y2="164"></line><line x1="519.5" x2="519.5" y1="188" y2="196"></line></g><g aria-label="text" class="value" fill="#0b0b0b" text-anchor="start" font-size="12" font-variant="tabular-nums" transform="translate(10,7)"><text y="0.32em" transform="translate(330.94505494505495,25)" data-role="value">10.4%</text><text y="0.32em" transform="translate(335.4736842105263,57)" data-role="value">10.8%</text><text y="0.32em" transform="translate(342.85144710190764,89)" data-role="value">11.5%</text><text y="0.32em" transform="translate(346.5786560783049,121)" data-role="value">12.8%</text><text y="0.32em" transform="translate(380,153)" data-role="value">17.0%</text><text y="0.32em" transform="translate(519.5,185)" data-role="value">40.3%</text></g><g aria-label="text" fill="#0b0b0b" text-anchor="end" font-size="12" transform="translate(-14,7)"><text y="0.32em" transform="translate(236,25)">gpt-5.4-mini, structured</text><text y="0.32em" transform="translate(236,57)">gpt-5.4-mini, free-decode</text><text y="0.32em" transform="translate(236,121)">Gemini 2.5 Flash, constrained</text><text y="0.32em" transform="translate(236,153)">Gemini 2.5 Flash, free-decode</text><text y="0.32em" transform="translate(236,185)">Mistral Document AI (OCR 4)</text></g><g aria-label="text" fill="#0b0b0b" text-anchor="end" font-size="12" font-weight="600" transform="translate(-14,7)"><text y="0.32em" transform="translate(236,89)">Velrim (ours)</text></g></svg>
<path d="M622,72.3 H616 V243.7 H622" fill="none" stroke="#52514e" stroke-width="1.2" data-role="annotation"/>
<text x="628" y="149.0" font-size="11" fill="#52514e" data-role="annotation">these five:</text>
<text x="628" y="162.0" font-size="11" fill="#52514e" data-role="annotation">ranges overlap,</text>
<text x="628" y="175.0" font-size="11" fill="#52514e" data-role="annotation">cannot be told apart</text>
<text x="628" y="270.0" font-size="11" fill="#52514e" data-role="annotation">the one clearly apart</text>
<text x="16" y="334.0" font-size="10.5" fill="#52514e">The black line on each bar is the range the true rate likely sits in.</text>
<text x="16" y="349.0" font-size="10.5" fill="#52514e">Where two ranges overlap, this test cannot tell those systems apart.</text>
</svg>